<svg width="138" height="25" viewBox="0 0 138 25" fill="none" xmlns="http://www.w3.org/2000/svg">
<path d="M8.94169 2.37669C11.0588 2.36149 13.1777 2.35304 15.2948 2.38176C14.4085 4.98142 13.3628 7.52534 12.4817 10.1267C16.1331 10.1436 19.7863 10.1453 23.4377 10.125C24.3565 7.53379 25.3543 4.96791 26.2731 2.375C28.3954 2.3598 30.5194 2.36149 32.6434 2.375C32.4685 2.94257 32.2697 3.50169 32.0571 4.05575C29.7514 10.2416 27.4783 16.4392 25.1725 22.6233C23.0554 22.6385 20.9365 22.647 18.8194 22.6182C19.7057 20.0186 20.7514 17.4747 21.6325 14.8733C17.016 14.8615 12.3994 14.8412 7.78454 14.8835C8.5114 15.4527 9.35312 15.8547 10.1108 16.3818C9.35654 18.4628 8.57483 20.5355 7.84283 22.625C5.71883 22.6402 3.59312 22.6385 1.46912 22.625C2.88169 18.5726 4.43655 14.5693 5.90569 10.5372C6.92055 7.81757 7.90969 5.08953 8.94169 2.37669Z" fill="white"/>
<path d="M40.596 2.49324C40.9954 2.38513 41.4103 2.35642 41.8252 2.36148C47.016 2.38851 52.2086 2.34459 57.3994 2.38344C57.4217 2.49831 57.468 2.72635 57.492 2.84121L57.3686 2.76351C56.8509 2.35135 56.1566 2.47466 55.5429 2.46115C50.5611 2.50338 45.5777 2.43919 40.596 2.49324Z" fill="white"/>
<path d="M76.7914 2.5C77.1548 2.28547 77.5971 2.39527 78 2.36824C79.7914 2.40541 81.5863 2.30912 83.376 2.43074C83.2611 2.50845 83.1411 2.55743 83.0108 2.57939C80.9485 2.35473 78.8622 2.47635 76.7914 2.5Z" fill="white"/>
<path d="M85.9748 2.42569C87.7131 2.31758 89.4582 2.41387 91.2 2.37332C91.6337 2.42062 92.1737 2.25677 92.5097 2.60812L92.3263 2.58278C90.2742 2.27535 88.1879 2.54731 86.1222 2.43076L85.9748 2.42569Z" fill="white"/>
<path d="M117.317 2.55575C117.3 2.21791 117.924 2.20778 118.085 2.44257C117.837 2.52197 117.578 2.57433 117.317 2.55575Z" fill="white"/>
<path d="M38.3365 7.06251C39.3223 6.90035 40.3217 7.00001 41.3143 6.98819C46.0937 6.97636 50.8714 7.00001 55.6491 6.97636L55.8051 7.04055C54.6925 7.15711 53.5731 7.06251 52.4571 7.08954C47.8045 7.11657 43.1485 7.03549 38.4977 7.13346L38.3365 7.06251Z" fill="white"/>
<path d="M40.2771 10.2314C40.308 10.1875 40.3697 10.0997 40.4005 10.0558C41.4428 10.196 42.4937 10.1284 43.5428 10.1385C45.8863 10.1385 48.2297 10.1436 50.5731 10.1318C50.9091 10.1537 51.3274 10.076 51.5503 10.3936L51.3668 10.3716C50.9331 10.3142 50.4994 10.2483 50.0623 10.2348C46.8017 10.2365 43.5377 10.2686 40.2771 10.2314Z" fill="white"/>
<path d="M35.4565 14.7703C40.1811 14.7213 44.9108 14.7905 49.6371 14.7399L49.7931 14.8074C49.4828 14.848 49.1708 14.8682 48.8588 14.8682C44.9143 14.848 40.9714 14.8733 37.0285 14.853C36.6017 14.8497 36.1783 14.9037 35.7565 14.9544C35.6554 14.8936 35.556 14.8328 35.4565 14.7703Z" fill="white"/>
<path d="M81.3068 14.9156L81.4594 14.8919C81.4217 14.9713 81.3463 15.1318 81.3085 15.2112L81.228 15.0794L81.3068 14.9156Z" fill="white"/>
<path d="M108.677 16.3564C109.644 16.2128 110.626 16.3142 111.6 16.2889C112.642 16.3142 113.691 16.2111 114.727 16.3615C112.711 16.3581 110.693 16.3649 108.677 16.3564Z" fill="white"/>
<path d="M37.5822 17.9156C42.0274 17.8953 46.4742 17.924 50.9194 17.902C51.24 17.8953 51.5622 17.9308 51.8674 18.0355L51.6668 18.0389C46.956 17.9949 42.2434 18.0051 37.5325 18.0355L37.5822 17.9156Z" fill="white"/>
<path d="M30.9703 20.473C30.7594 19.8547 30.8211 19.1774 30.9806 18.5558C30.9651 19.1943 30.9669 19.8345 30.9703 20.473Z" fill="white"/>
<path d="M102.516 20.2314C102.627 20.0372 102.792 19.8801 102.982 19.7601C103.195 20.0034 102.768 20.4662 102.516 20.2314Z" fill="white"/>
<path d="M52.3045 22.3868L52.4143 22.4054C53.5011 22.6166 54.6137 22.527 55.7143 22.5355C56.6743 22.5287 57.6411 22.5794 58.5977 22.4747L58.5994 22.6216C56.4274 22.6216 54.2571 22.6504 52.0868 22.6014C52.1417 22.5473 52.2514 22.4409 52.3045 22.3868Z" fill="white"/>
<path d="M33.048 22.5169C38.6965 22.5625 44.3485 22.4764 49.9954 22.5558L50.1428 22.571C49.8857 22.6031 49.6285 22.6233 49.3697 22.6318C44.1668 22.6368 38.964 22.6199 33.7611 22.6402C33.516 22.6453 33.2777 22.5879 33.048 22.5169Z" fill="white"/>
<path d="M82.2582 22.5101C83.6365 22.5709 85.02 22.5456 86.4 22.5523C90.468 22.5236 94.5377 22.603 98.604 22.5067C98.2594 22.5844 97.9062 22.625 97.5548 22.625C93.2074 22.6098 88.8617 22.6267 84.5142 22.6199C83.7617 22.6115 82.9971 22.6807 82.2582 22.5101Z" fill="white"/>
<path d="M59.556 2.6588C59.676 2.23482 60.1817 2.39867 60.5143 2.35644C62.3725 2.41725 64.2411 2.26691 66.0925 2.43752L65.9365 2.48144C63.8777 2.70948 61.7931 2.4088 59.7308 2.64529L59.556 2.6588Z" fill="#4CD4FF"/>
<path d="M103.279 2.40712C105.135 2.30408 106.999 2.40036 108.859 2.35645C109.191 2.38685 109.654 2.26861 109.826 2.64699L109.646 2.61996C107.585 2.27874 105.487 2.60138 103.414 2.44935L103.279 2.40712Z" fill="#4CD4FF"/>
<path d="M133.046 2.44766C133.155 2.20442 133.697 2.25002 133.668 2.5507C133.452 2.57942 133.239 2.5355 133.046 2.44766Z" fill="#4CD4FF"/>
<path d="M35.3383 6.60815C36.3343 4.55578 38.3126 2.93078 40.596 2.49328C45.5777 2.43923 50.5611 2.50342 55.5429 2.46119C56.1566 2.4747 56.8509 2.35139 57.3686 2.76355C56.868 4.17403 56.3194 5.56592 55.8206 6.97639H55.6491C50.8714 7.00004 46.0937 6.97639 41.3143 6.98822C40.3217 7.00004 39.3223 6.90038 38.3366 7.06254L38.4977 7.13349C39.36 7.58619 40.1966 8.08619 41.0091 8.62335C40.8206 9.10646 40.6611 9.60477 40.4006 10.0558C40.3697 10.0997 40.308 10.1875 40.2771 10.2315C43.5377 10.2686 46.8017 10.2365 50.0623 10.2348C50.4994 10.2484 50.9331 10.3142 51.3669 10.3717C50.904 11.8463 50.2714 13.2652 49.8017 14.7382L49.6371 14.7399C44.9109 14.7906 40.1811 14.7213 35.4566 14.7703C35.556 14.8328 35.6554 14.8936 35.7566 14.9544C36.5331 15.4325 37.3406 15.8615 38.0897 16.3835C37.9046 16.8886 37.7623 17.4088 37.5823 17.9156L37.5326 18.0355C42.2434 18.0051 46.956 17.995 51.6669 18.0389C51.2006 19.5727 50.6314 21.0828 49.9954 22.5558C44.3486 22.4764 38.6966 22.5625 33.048 22.5169C32.0554 22.2906 31.1794 21.4629 30.9703 20.473C30.9668 19.8345 30.9651 19.1943 30.9806 18.5558C31.6954 16.1622 32.76 13.8767 33.4594 11.4764C34.1708 9.88687 34.7006 8.22639 35.3383 6.60815Z" fill="#4CD4FF"/>
<path d="M111.999 6.8024L112.15 6.76862C112.119 6.85139 112.054 7.01692 112.023 7.09969L111.934 6.97301L111.999 6.8024Z" fill="#4CD4FF"/>
<path d="M117.177 10.0068C117.221 9.92231 117.307 9.75508 117.35 9.67062C117.387 9.73481 117.461 9.86319 117.497 9.92738L117.423 10.0659C117.362 10.0507 117.238 10.022 117.177 10.0068Z" fill="#4CD4FF"/>
<path d="M133.011 12.7314C133.329 12.7889 133.337 13.576 133.017 13.6318C132.993 13.3311 132.991 13.0304 133.011 12.7314Z" fill="#4CD4FF"/>
<path d="M113.014 14.6791C113.225 14.647 113.438 14.6909 113.631 14.7804C113.52 15.0237 112.982 14.9798 113.014 14.6791Z" fill="#4CD4FF"/>
<path d="M80.1445 18.1436C80.3451 17.8243 80.7617 17.924 81.0822 17.897C86.6211 17.9341 92.1617 17.8615 97.6988 17.9341C97.3663 17.9848 97.0303 18.027 96.696 18.0338C91.7777 17.9899 86.8594 18.0456 81.9411 18.0034C81.3394 18.0017 80.7411 18.0777 80.1445 18.1436Z" fill="#4CD4FF"/>
<path d="M75.696 22.3548L75.8726 22.3412C75.7509 22.7635 75.2451 22.6014 74.9143 22.6436C73.056 22.5828 71.1874 22.7314 69.336 22.5642L69.4903 22.5169C71.5491 22.2923 73.6354 22.5912 75.696 22.3548Z" fill="#4CD4FF"/>
<path d="M118.085 2.44258C118.711 2.30407 119.361 2.37164 120 2.3615C124.058 2.36488 128.115 2.37164 132.173 2.35812C132.463 2.36826 132.765 2.35474 133.046 2.44765C133.239 2.53549 133.452 2.57941 133.668 2.55069C134.757 2.52535 135.581 3.50339 135.873 4.45609C136.284 5.86488 135.677 7.27366 135.19 8.57941C133.046 8.64866 130.898 8.62163 128.753 8.59292C128.926 8.10305 129.103 7.61488 129.271 7.12332C124.673 7.13684 120.075 7.13177 115.479 7.12501C116.091 7.63346 116.825 7.96116 117.492 8.39022C118.023 8.66049 117.543 9.31589 117.35 9.67062C117.307 9.75508 117.221 9.92231 117.177 10.0068C117.238 10.022 117.362 10.0507 117.423 10.0659C118.277 10.1774 119.139 10.1301 120 10.1335C123.43 10.1351 126.862 10.1351 130.294 10.1318C131.655 10.1554 133.104 11.3159 133.011 12.7314C132.991 13.0304 132.993 13.3311 133.017 13.6318C133.102 14.5051 132.643 15.2939 132.393 16.1047C131.952 17.2601 131.652 18.5 130.881 19.4983C129.629 21.1284 127.778 22.451 125.666 22.6318C120.689 22.6436 115.711 22.625 110.734 22.6402C109.198 22.7112 107.765 21.4409 107.654 19.9358C107.541 18.6774 108.146 17.5237 108.521 16.3564H108.677C110.693 16.3649 112.711 16.3581 114.727 16.3615H114.91C114.759 16.8835 114.579 17.397 114.377 17.902C118.011 17.902 121.646 17.9223 125.28 17.8919C125.688 16.9004 126.055 15.8919 126.405 14.8784C122.381 14.8497 118.358 14.8716 114.334 14.8699C114.093 14.875 113.859 14.8446 113.631 14.7804C113.438 14.6909 113.225 14.647 113.014 14.6791C111.931 14.7382 111.081 13.799 110.691 12.8936C110.347 11.7483 110.599 10.5135 111.06 9.43413C111.391 8.66218 111.574 7.81589 112.023 7.09968C112.054 7.0169 112.119 6.85136 112.15 6.76859C112.126 6.5017 112.315 6.27366 112.43 6.04562C113.266 4.58954 114.662 3.52704 116.172 2.81251C116.53 2.64697 116.919 2.53887 117.317 2.55576C117.578 2.57434 117.837 2.52197 118.085 2.44258Z" fill="#00BAFF"/>
<path d="M59.7308 2.64529C61.7931 2.4088 63.8777 2.70948 65.9366 2.48144C67.0937 4.50339 67.9234 6.6909 69.084 8.70948C71.7017 6.70103 74.2131 4.55576 76.7914 2.50002C78.8623 2.47637 80.9485 2.35475 83.0108 2.57941C82.3577 3.29056 81.5537 3.83954 80.8183 4.46117C77.5337 7.15542 74.2114 9.80576 70.9491 12.5254C71.472 13.777 72.1628 14.9527 72.7183 16.1909C73.6714 18.2635 74.7994 20.2568 75.696 22.3547C73.6354 22.5912 71.5491 22.2922 69.4903 22.5169C68.4668 20.6875 67.6131 18.7703 66.6994 16.8868C66.5794 16.7112 66.54 16.4409 66.3188 16.3581C66.1611 16.4189 66.0171 16.5017 65.8886 16.6064C63.744 18.3852 61.5668 20.1233 59.4103 21.8902C59.148 22.0963 58.8926 22.3142 58.5977 22.4747C57.6411 22.5794 56.6743 22.5287 55.7143 22.5355C54.6137 22.527 53.5011 22.6166 52.4143 22.4054C52.584 22.2365 52.7554 22.0693 52.9337 21.9088C56.7617 18.7382 60.6668 15.6571 64.476 12.4645C63.7063 10.7264 62.76 9.06927 61.9868 7.3311C61.2548 5.76015 60.3788 4.25339 59.7308 2.64529Z" fill="#00BAFF"/>
<path d="M85.4897 3.82265C85.68 3.35306 85.7828 2.82265 86.1223 2.43076C88.188 2.54731 90.2743 2.27535 92.3263 2.58279C91.284 5.5017 90.1954 8.40373 89.1343 11.3159C88.3337 13.6216 86.3794 15.5118 84.0017 16.2061C82.9834 16.5017 81.9103 16.3733 80.8663 16.3683C80.9863 15.9764 81.0531 15.5473 81.3086 15.2112C81.3463 15.1318 81.4217 14.9713 81.4594 14.8919C81.5143 14.3074 81.8023 13.7754 81.9926 13.2264C83.1566 10.0912 84.3291 6.95947 85.4897 3.82265Z" fill="#00BAFF"/>
<path d="M103.414 2.44934C105.487 2.60137 107.585 2.27873 109.646 2.61995C108.408 6.20948 107.021 9.74664 105.734 13.3176C105.075 15.0355 104.498 16.7821 103.779 18.4764C103.56 18.9257 103.399 19.446 102.982 19.7602C102.792 19.8801 102.627 20.0372 102.516 20.2314C101.525 21.3733 100.121 22.2534 98.604 22.5068C94.5377 22.6031 90.468 22.5237 86.4 22.5524C85.02 22.5456 83.6365 22.571 82.2582 22.5102C81.1971 22.3058 80.3314 21.4392 80.0777 20.4139C79.9234 19.6605 80.0588 18.8953 80.1445 18.1436C80.7411 18.0777 81.3394 18.0017 81.9411 18.0034C86.8594 18.0456 91.7777 17.9899 96.696 18.0338C97.0303 18.0271 97.3663 17.9848 97.6988 17.9341C98.052 16.6841 98.5663 15.4865 98.9965 14.2618C100.19 11.0456 101.374 7.82772 102.567 4.6115C102.855 3.89191 103.025 3.12671 103.414 2.44934Z" fill="#00BAFF"/>
</svg>
